<?xml version="1.0" encoding="utf-8"?>
<!-- Generator: Adobe Illustrator 25.0.1, SVG Export Plug-In . SVG Version: 6.00 Build 0)  -->
<svg version="1.1" id="Layer_1" xmlns="http://www.w3.org/2000/svg" xmlns:xlink="http://www.w3.org/1999/xlink" x="0px" y="0px"
	 viewBox="0 0 1920 1080" style="enable-background:new 0 0 1920 1080;" xml:space="preserve">
<style type="text/css">
	.st0{fill:#F15A29;}
	.st1{fill:url(#SVGID_1_);}
	.st2{fill:url(#SVGID_2_);}
	.st3{fill:url(#SVGID_3_);}
	.st4{fill:#BE202E;}
</style>
<g>
	<g>
		<path class="st0" d="M409.26,698.79l28.01,8.88c-4.3,15.62-11.44,27.22-21.43,34.8c-9.99,7.58-22.66,11.37-38.02,11.37
			c-19,0-34.62-6.49-46.85-19.47c-12.23-12.98-18.35-30.73-18.35-53.25c0-23.82,6.15-42.31,18.45-55.49
			c12.3-13.17,28.47-19.76,48.51-19.76c17.5,0,31.72,5.18,42.65,15.52c6.51,6.11,11.39,14.9,14.64,26.35l-28.6,6.83
			c-1.69-7.42-5.22-13.28-10.59-17.57c-5.37-4.3-11.89-6.44-19.57-6.44c-10.61,0-19.21,3.81-25.82,11.42
			c-6.61,7.61-9.91,19.95-9.91,36.99c0,18.09,3.25,30.98,9.76,38.66c6.51,7.68,14.97,11.52,25.38,11.52
			c7.68,0,14.28-2.44,19.81-7.32C402.88,716.95,406.85,709.27,409.26,698.79z"/>
		<path class="st0" d="M494.65,751.4v-60.23l-52.41-82.87h33.87l33.67,56.61l32.99-56.61h33.28l-52.61,83.06v60.03H494.65z"/>
		<path class="st0" d="M585.5,608.31h57.2c11.32,0,19.77,0.47,25.33,1.42s10.54,2.91,14.93,5.9c4.39,2.99,8.05,6.98,10.98,11.96
			c2.93,4.97,4.39,10.56,4.39,16.74c0,6.7-1.81,12.85-5.42,18.45c-3.61,5.6-8.51,9.79-14.69,12.59c8.72,2.54,15.42,6.86,20.11,12.98
			c4.68,6.12,7.03,13.31,7.03,21.57c0,6.51-1.51,12.83-4.54,18.98c-3.03,6.15-7.16,11.07-12.4,14.74
			c-5.24,3.68-11.7,5.94-19.37,6.78c-4.82,0.53-16.43,0.85-34.85,0.98H585.5V608.31z M614.39,632.13v33.09h18.94
			c11.26,0,18.25-0.16,20.98-0.49c4.94-0.58,8.83-2.3,11.66-5.12c2.83-2.83,4.25-6.56,4.25-11.18c0-4.42-1.22-8.02-3.66-10.78
			c-2.44-2.77-6.07-4.44-10.88-5.03c-2.86-0.32-11.09-0.49-24.69-0.49H614.39z M614.39,689.03v38.26h26.75
			c10.41,0,17.02-0.29,19.81-0.87c4.29-0.78,7.79-2.68,10.49-5.71c2.7-3.03,4.05-7.08,4.05-12.15c0-4.3-1.04-7.94-3.12-10.93
			s-5.09-5.18-9.03-6.54c-3.94-1.37-12.48-2.05-25.62-2.05H614.39z"/>
		<path class="st0" d="M724.76,751.4V608.31h106.1v24.2h-77.21v31.73h71.84v24.11h-71.84v38.95h79.94v24.11H724.76z"/>
		<path class="st0" d="M853.2,751.4V608.31h60.81c15.29,0,26.41,1.28,33.33,3.85c6.93,2.57,12.49,7.14,16.64,13.71
			c4.17,6.57,6.25,14.09,6.25,22.55c0,10.74-3.16,19.6-9.47,26.6c-6.31,6.99-15.75,11.4-28.31,13.23c6.25,3.64,11.4,7.64,15.47,12
			s9.55,12.1,16.45,23.23l17.47,27.92h-34.55l-20.89-31.14c-7.42-11.13-12.5-18.14-15.23-21.03c-2.73-2.9-5.63-4.88-8.69-5.96
			c-3.06-1.07-7.9-1.61-14.54-1.61h-5.86v59.73H853.2z M882.09,668.83h21.38c13.86,0,22.52-0.58,25.97-1.75
			c3.44-1.17,6.14-3.19,8.1-6.05c1.95-2.87,2.93-6.44,2.93-10.74c0-4.81-1.29-8.7-3.86-11.66c-2.57-2.96-6.19-4.83-10.88-5.61
			c-2.34-0.32-9.37-0.49-21.08-0.49h-22.55V668.83z"/>
		<path class="st0" d="M985.14,704.84l28.11-2.73c1.69,9.44,5.13,16.37,10.3,20.79c5.17,4.42,12.15,6.64,20.94,6.64
			c9.31,0,16.32-1.97,21.04-5.9c4.71-3.94,7.07-8.54,7.07-13.81c0-3.38-0.99-6.26-2.97-8.64c-1.99-2.37-5.45-4.44-10.4-6.2
			c-3.39-1.17-11.09-3.25-23.13-6.25c-15.49-3.84-26.36-8.56-32.6-14.15c-8.78-7.87-13.17-17.47-13.17-28.8
			c0-7.29,2.06-14.1,6.2-20.45c4.13-6.35,10.09-11.18,17.86-14.5c7.77-3.32,17.16-4.98,28.16-4.98c17.96,0,31.48,3.94,40.56,11.81
			c9.07,7.87,13.84,18.38,14.3,31.53l-28.89,1.27c-1.23-7.35-3.89-12.64-7.95-15.86c-4.07-3.22-10.17-4.83-18.3-4.83
			c-8.4,0-14.97,1.72-19.72,5.18c-3.06,2.21-4.59,5.17-4.59,8.88c0,3.38,1.43,6.28,4.3,8.69c3.64,3.06,12.5,6.25,26.55,9.57
			s24.45,6.75,31.18,10.3c6.73,3.55,12.01,8.4,15.81,14.54c3.81,6.15,5.71,13.74,5.71,22.79c0,8.2-2.28,15.88-6.83,23.03
			c-4.56,7.16-11,12.48-19.33,15.96c-8.33,3.48-18.71,5.22-31.14,5.22c-18.09,0-31.99-4.18-41.68-12.54
			C992.82,733.04,987.03,720.85,985.14,704.84z"/>
		<path class="st0" d="M1114.94,680.74c0-14.58,2.18-26.81,6.54-36.7c3.25-7.28,7.69-13.82,13.32-19.62
			c5.63-5.79,11.79-10.09,18.5-12.88c8.91-3.77,19.2-5.66,30.84-5.66c21.08,0,37.95,6.54,50.61,19.62
			c12.65,13.08,18.98,31.27,18.98,54.56c0,23.1-6.28,41.17-18.84,54.22c-12.56,13.05-29.35,19.57-50.36,19.57
			c-21.28,0-38.2-6.49-50.75-19.47C1121.22,721.39,1114.94,703.51,1114.94,680.74z M1144.71,679.76c0,16.2,3.74,28.48,11.22,36.85
			c7.48,8.36,16.98,12.54,28.5,12.54s20.97-4.15,28.36-12.45c7.38-8.3,11.08-20.74,11.08-37.33c0-16.4-3.6-28.63-10.79-36.7
			c-7.19-8.07-16.74-12.1-28.65-12.1c-11.91,0-21.51,4.09-28.79,12.25C1148.35,650.98,1144.71,663.3,1144.71,679.76z"/>
		<path class="st0" d="M1271.48,751.4V608.31h98.1v24.2h-69.21v33.87h59.73v24.2h-59.73v60.81H1271.48z"/>
		<path class="st0" d="M1420.6,751.4V632.52h-42.46v-24.2h113.71v24.2h-42.36V751.4H1420.6z"/>
	</g>
</g>
<g>
	<g>
		<path class="st0" d="M431.81,1023.79v-66.65h8.82v66.65H431.81z"/>
		<path class="st0" d="M456.07,1023.79v-48.29h7.36v6.87c3.55-5.31,8.67-7.95,15.37-7.95c2.91,0,5.59,0.52,8.03,1.56
			c2.44,1.05,4.27,2.42,5.48,4.12c1.21,1.69,2.06,3.71,2.55,6.05c0.3,1.51,0.45,4.17,0.45,7.95v29.69h-8.18v-29.37
			c0-3.33-0.32-5.83-0.95-7.48c-0.64-1.65-1.76-2.97-3.39-3.95c-1.62-0.99-3.52-1.48-5.7-1.48c-3.49,0-6.5,1.1-9.03,3.32
			c-2.53,2.21-3.8,6.41-3.8,12.59v26.37H456.07z"/>
		<path class="st0" d="M508.79,1023.79v-48.29h7.36v6.87c3.55-5.31,8.67-7.95,15.37-7.95c2.91,0,5.58,0.52,8.03,1.56
			c2.44,1.05,4.27,2.42,5.47,4.12c1.21,1.69,2.06,3.71,2.55,6.05c0.3,1.51,0.45,4.17,0.45,7.95v29.69h-8.18v-29.37
			c0-3.33-0.32-5.83-0.95-7.48c-0.64-1.65-1.76-2.97-3.39-3.95c-1.62-0.99-3.52-1.48-5.7-1.48c-3.48,0-6.49,1.1-9.03,3.32
			c-2.53,2.21-3.8,6.41-3.8,12.59v26.37H508.79z"/>
		<path class="st0" d="M558.45,999.65c0-8.94,2.49-15.57,7.46-19.87c4.15-3.58,9.22-5.36,15.19-5.36c6.64,0,12.07,2.17,16.28,6.52
			c4.22,4.36,6.32,10.36,6.32,18.03c0,6.22-0.93,11.1-2.79,14.67c-1.87,3.55-4.58,6.32-8.14,8.29c-3.56,1.98-7.45,2.95-11.66,2.95
			c-6.76,0-12.22-2.17-16.39-6.5C560.54,1014.04,558.45,1007.8,558.45,999.65z M566.86,999.65c0,6.18,1.35,10.81,4.05,13.89
			c2.7,3.08,6.09,4.61,10.18,4.61c4.06,0,7.44-1.55,10.14-4.64c2.7-3.09,4.05-7.8,4.05-14.13c0-5.98-1.36-10.5-4.07-13.58
			c-2.71-3.07-6.09-4.62-10.12-4.62c-4.09,0-7.48,1.54-10.18,4.6C568.22,988.85,566.86,993.47,566.86,999.65z"/>
		<path class="st0" d="M627.63,1023.79l-18.37-48.29h8.64l10.36,28.91c1.12,3.12,2.15,6.37,3.09,9.74c0.73-2.55,1.74-5.61,3.05-9.19
			l10.73-29.46h8.41l-18.28,48.29H627.63z"/>
		<path class="st0" d="M693.21,1017.84c-3.03,2.57-5.95,4.39-8.75,5.46c-2.8,1.06-5.81,1.58-9.02,1.58c-5.3,0-9.38-1.29-12.23-3.88
			c-2.85-2.6-4.27-5.91-4.27-9.94c0-2.36,0.54-4.52,1.61-6.47c1.07-1.95,2.48-3.52,4.23-4.7c1.74-1.18,3.7-2.08,5.88-2.69
			c1.61-0.42,4.04-0.83,7.28-1.22c6.61-0.79,11.47-1.74,14.6-2.82c0.03-1.12,0.05-1.83,0.05-2.13c0-3.34-0.77-5.68-2.32-7.05
			c-2.09-1.84-5.2-2.77-9.32-2.77c-3.85,0-6.69,0.67-8.53,2.03c-1.83,1.35-3.19,3.74-4.07,7.16l-8-1.09
			c0.73-3.43,1.92-6.19,3.59-8.3c1.67-2.1,4.08-3.73,7.23-4.87c3.15-1.14,6.8-1.7,10.95-1.7c4.12,0,7.47,0.48,10.05,1.45
			c2.58,0.97,4.47,2.19,5.68,3.66c1.21,1.47,2.06,3.33,2.55,5.56c0.27,1.4,0.41,3.92,0.41,7.56v10.91c0,7.61,0.17,12.42,0.52,14.43
			c0.35,2.02,1.04,3.96,2.07,5.8h-8.55C694,1022.09,693.45,1020.11,693.21,1017.84z M692.53,999.56c-2.97,1.21-7.43,2.25-13.37,3.09
			c-3.36,0.49-5.74,1.04-7.14,1.64c-1.39,0.61-2.47,1.5-3.22,2.65c-0.76,1.17-1.14,2.47-1.14,3.89c0,2.19,0.83,4,2.48,5.46
			c1.65,1.45,4.07,2.18,7.25,2.18c3.15,0,5.96-0.68,8.41-2.06c2.46-1.38,4.26-3.26,5.41-5.66c0.88-1.86,1.32-4.59,1.32-8.18V999.56z
			"/>
		<path class="st0" d="M732.29,1016.47l1.18,7.23c-2.3,0.49-4.36,0.73-6.18,0.73c-2.97,0-5.27-0.47-6.91-1.41
			c-1.63-0.93-2.79-2.17-3.46-3.7c-0.67-1.53-1-4.76-1-9.67v-27.77h-6v-6.37h6v-11.95l8.14-4.91v16.87h8.23v6.37h-8.23v28.23
			c0,2.33,0.14,3.84,0.43,4.5c0.28,0.67,0.76,1.2,1.41,1.6c0.65,0.39,1.58,0.59,2.79,0.59
			C729.61,1016.79,730.8,1016.68,732.29,1016.47z"/>
		<path class="st0" d="M741.27,966.55v-9.4h8.18v9.4H741.27z M741.27,1023.79v-48.29h8.18v48.29H741.27z"/>
		<path class="st0" d="M776.25,1023.79l-18.37-48.29h8.64l10.37,28.91c1.12,3.12,2.15,6.37,3.09,9.74c0.73-2.55,1.74-5.61,3.05-9.19
			l10.73-29.46h8.41l-18.28,48.29H776.25z"/>
		<path class="st0" d="M843.38,1008.24l8.46,1.04c-1.34,4.94-3.81,8.78-7.41,11.51c-3.61,2.73-8.21,4.08-13.82,4.08
			c-7.07,0-12.66-2.17-16.8-6.52c-4.14-4.35-6.21-10.45-6.21-18.31c0-8.12,2.09-14.42,6.27-18.91c4.18-4.48,9.61-6.72,16.28-6.72
			c6.45,0,11.73,2.2,15.82,6.59c4.09,4.39,6.14,10.58,6.14,18.55c0,0.49-0.02,1.21-0.05,2.18h-36.01c0.3,5.3,1.8,9.37,4.5,12.19
			c2.7,2.81,6.06,4.22,10.09,4.22c3,0,5.56-0.79,7.68-2.37C840.45,1014.21,842.14,1011.7,843.38,1008.24z M816.51,995.01h26.96
			c-0.36-4.07-1.4-7.11-3.09-9.14c-2.61-3.14-5.99-4.73-10.14-4.73c-3.75,0-6.92,1.26-9.48,3.78
			C818.2,987.43,816.79,990.8,816.51,995.01z"/>
		<path class="st0" d="M906.17,1023.79v-58.78h-21.96v-7.86h52.82v7.86h-22.05v58.78H906.17z"/>
		<path class="st0" d="M968.7,1008.24l8.46,1.04c-1.34,4.94-3.81,8.78-7.41,11.51c-3.61,2.73-8.21,4.08-13.82,4.08
			c-7.07,0-12.66-2.17-16.8-6.52c-4.14-4.35-6.21-10.45-6.21-18.31c0-8.12,2.09-14.42,6.27-18.91c4.19-4.48,9.6-6.72,16.27-6.72
			c6.46,0,11.74,2.2,15.83,6.59c4.09,4.39,6.13,10.58,6.13,18.55c0,0.49-0.01,1.21-0.04,2.18h-36.01c0.3,5.3,1.8,9.37,4.5,12.19
			c2.7,2.81,6.07,4.22,10.1,4.22c2.99,0,5.56-0.79,7.69-2.37C965.77,1014.21,967.45,1011.7,968.7,1008.24z M941.83,995.01h26.96
			c-0.36-4.07-1.39-7.11-3.09-9.14c-2.61-3.14-5.99-4.73-10.14-4.73c-3.76,0-6.92,1.26-9.48,3.78
			C943.52,987.43,942.1,990.8,941.83,995.01z"/>
		<path class="st0" d="M1019.87,1006.1l8.04,1.05c-0.87,5.55-3.13,9.89-6.74,13.03c-3.63,3.13-8.08,4.7-13.35,4.7
			c-6.61,0-11.92-2.16-15.94-6.47c-4.02-4.32-6.02-10.51-6.02-18.58c0-5.21,0.86-9.77,2.59-13.68c1.72-3.91,4.35-6.85,7.89-8.8
			c3.52-1.96,7.37-2.93,11.53-2.93c5.24,0,9.53,1.32,12.87,3.98c3.32,2.65,5.47,6.42,6.41,11.3l-7.96,1.23
			c-0.76-3.24-2.09-5.69-4.02-7.32c-1.93-1.64-4.25-2.46-6.98-2.46c-4.12,0-7.47,1.48-10.04,4.43c-2.58,2.96-3.86,7.64-3.86,14.03
			c0,6.48,1.24,11.2,3.73,14.14c2.48,2.94,5.73,4.41,9.73,4.41c3.21,0,5.89-0.99,8.05-2.95
			C1017.93,1013.22,1019.3,1010.19,1019.87,1006.1z"/>
		<path class="st0" d="M1035.85,1023.79v-66.65h8.18v23.91c3.81-4.43,8.64-6.64,14.46-6.64c3.57,0,6.69,0.7,9.33,2.11
			c2.63,1.41,4.52,3.35,5.65,5.84c1.15,2.49,1.71,6.09,1.71,10.82v30.6H1067v-30.6c0-4.09-0.88-7.07-2.66-8.94
			c-1.77-1.86-4.28-2.8-7.53-2.8c-2.42,0-4.7,0.63-6.84,1.89c-2.13,1.26-3.66,2.96-4.57,5.11c-0.91,2.16-1.37,5.12-1.37,8.92v26.41
			H1035.85z"/>
		<path class="st0" d="M1088.57,1023.79v-48.29h7.36v6.87c3.55-5.31,8.67-7.95,15.37-7.95c2.91,0,5.58,0.52,8.02,1.56
			c2.45,1.05,4.27,2.42,5.48,4.12c1.21,1.69,2.06,3.71,2.55,6.05c0.3,1.51,0.45,4.17,0.45,7.95v29.69h-8.19v-29.37
			c0-3.33-0.31-5.83-0.95-7.48c-0.63-1.65-1.77-2.97-3.39-3.95c-1.62-0.99-3.52-1.48-5.71-1.48c-3.49,0-6.48,1.1-9.02,3.32
			c-2.53,2.21-3.79,6.41-3.79,12.59v26.37H1088.57z"/>
		<path class="st0" d="M1138.24,999.65c0-8.94,2.49-15.57,7.46-19.87c4.16-3.58,9.22-5.36,15.19-5.36c6.64,0,12.06,2.17,16.28,6.52
			c4.21,4.36,6.32,10.36,6.32,18.03c0,6.22-0.94,11.1-2.8,14.67c-1.86,3.55-4.57,6.32-8.14,8.29c-3.56,1.98-7.45,2.95-11.66,2.95
			c-6.76,0-12.23-2.17-16.39-6.5C1140.33,1014.04,1138.24,1007.8,1138.24,999.65z M1146.65,999.65c0,6.18,1.35,10.81,4.05,13.89
			c2.7,3.08,6.09,4.61,10.19,4.61c4.06,0,7.44-1.55,10.14-4.64c2.69-3.09,4.05-7.8,4.05-14.13c0-5.98-1.36-10.5-4.07-13.58
			c-2.71-3.07-6.09-4.62-10.12-4.62c-4.09,0-7.49,1.54-10.19,4.6C1148,988.85,1146.65,993.47,1146.65,999.65z"/>
		<path class="st0" d="M1193.82,1023.79v-66.65h8.19v66.65H1193.82z"/>
		<path class="st0" d="M1212.57,999.65c0-8.94,2.49-15.57,7.46-19.87c4.16-3.58,9.22-5.36,15.19-5.36c6.64,0,12.06,2.17,16.27,6.52
			c4.21,4.36,6.32,10.36,6.32,18.03c0,6.22-0.93,11.1-2.8,14.67c-1.86,3.55-4.57,6.32-8.13,8.29c-3.57,1.98-7.45,2.95-11.66,2.95
			c-6.76,0-12.23-2.17-16.4-6.5C1214.66,1014.04,1212.57,1007.8,1212.57,999.65z M1220.98,999.65c0,6.18,1.35,10.81,4.05,13.89
			c2.7,3.08,6.1,4.61,10.19,4.61c4.05,0,7.43-1.55,10.13-4.64c2.7-3.09,4.05-7.8,4.05-14.13c0-5.98-1.35-10.5-4.06-13.58
			c-2.71-3.07-6.09-4.62-10.11-4.62c-4.1,0-7.49,1.54-10.19,4.6C1222.33,988.85,1220.98,993.47,1220.98,999.65z"/>
		<path class="st0" d="M1266.83,1027.79l7.96,1.18c0.33,2.45,1.26,4.24,2.78,5.36c2.03,1.51,4.8,2.28,8.32,2.28
			c3.79,0,6.72-0.76,8.77-2.28c2.06-1.51,3.46-3.63,4.19-6.36c0.42-1.67,0.62-5.17,0.58-10.5c-3.57,4.22-8.03,6.32-13.37,6.32
			c-6.64,0-11.78-2.39-15.42-7.19c-3.63-4.79-5.46-10.53-5.46-17.22c0-4.62,0.84-8.86,2.51-12.76c1.67-3.89,4.08-6.9,7.25-9.02
			c3.18-2.12,6.89-3.18,11.16-3.18c5.71,0,10.4,2.3,14.09,6.91v-5.82h7.55v41.74c0,7.51-0.76,12.84-2.3,15.98
			c-1.52,3.14-3.95,5.61-7.27,7.44c-3.32,1.81-7.41,2.72-12.25,2.72c-5.76,0-10.41-1.3-13.96-3.88
			C1268.43,1036.91,1266.71,1033,1266.83,1027.79z M1273.61,998.79c0,6.34,1.26,10.96,3.77,13.87c2.53,2.91,5.67,4.37,9.46,4.37
			c3.77,0,6.91-1.45,9.46-4.34c2.55-2.9,3.82-7.44,3.82-13.62c0-5.91-1.31-10.37-3.94-13.36c-2.62-3-5.78-4.5-9.48-4.5
			c-3.64,0-6.73,1.48-9.28,4.43C1274.88,988.58,1273.61,992.97,1273.61,998.79z"/>
		<path class="st0" d="M1320.69,1042.38l-0.91-7.68c1.79,0.48,3.35,0.73,4.68,0.73c1.82,0,3.27-0.3,4.37-0.91
			c1.09-0.6,1.98-1.46,2.67-2.55c0.52-0.82,1.35-2.86,2.5-6.1c0.16-0.45,0.39-1.13,0.73-2l-18.33-48.37h8.82l10.05,27.96
			c1.3,3.55,2.46,7.28,3.49,11.19c0.94-3.76,2.06-7.42,3.37-11.01l10.32-28.14h8.19l-18.37,49.1c-1.97,5.3-3.5,8.96-4.59,10.96
			c-1.46,2.7-3.13,4.68-5,5.93c-1.88,1.25-4.12,1.88-6.73,1.88C1324.38,1043.38,1322.63,1043.05,1320.69,1042.38z"/>
	</g>
</g>
<g>
	<g>
		<radialGradient id="SVGID_1_" cx="867.9608" cy="289.4075" r="236.3636" gradientUnits="userSpaceOnUse">
			<stop  offset="0" style="stop-color:#FBB040"/>
			<stop  offset="0.0943" style="stop-color:#F6A83F"/>
			<stop  offset="0.2423" style="stop-color:#EA943C"/>
			<stop  offset="0.4255" style="stop-color:#DD7838"/>
			<stop  offset="0.6346" style="stop-color:#CD5132"/>
			<stop  offset="0.8121" style="stop-color:#BE1E2D"/>
		</radialGradient>
		<path class="st1" d="M1020.99,423.33v-24.82c-10.35,8.92-21.28,17.13-33,24.07c-20.64,9.08-43.09,13.57-66.64,14.23
			c-81.64,2.28-262.43-110.99-124.09-267.23c27.65-31.23,41.34-32.61,63-30.5c27.66,2.7,27.8,38.36,27.8,38.36l53.2,0.13
			l-4.01-111.99l-39.01-17.01l-26.64-5.13l-5.38,0.42C740.35,54.89,641.6,160.29,641.6,289.01c0,136.05,110.27,246.37,246.35,246.37
			c86.46,0,162.4-44.64,206.37-112.04H1020.99z"/>
	</g>
	<radialGradient id="SVGID_2_" cx="887.6682" cy="356.9589" r="215.0353" gradientUnits="userSpaceOnUse">
		<stop  offset="0" style="stop-color:#FBB040"/>
		<stop  offset="0.1737" style="stop-color:#F9AC3F"/>
		<stop  offset="0.3292" style="stop-color:#F2A23E"/>
		<stop  offset="0.4778" style="stop-color:#E9933C"/>
		<stop  offset="0.6221" style="stop-color:#E07F39"/>
		<stop  offset="0.7635" style="stop-color:#D56635"/>
		<stop  offset="0.9005" style="stop-color:#C84430"/>
		<stop  offset="1" style="stop-color:#BE1E2D"/>
	</radialGradient>
	<path class="st2" d="M1106.08,177.87c1.76,11.62,2.98,23.4,2.98,35.49c0,129.01-104.57,233.6-233.58,233.6
		c-116.05,0-212.04-84.67-230.21-195.55c-2.05,12.68-3.38,25.6-3.38,38.86c0,135.73,110.04,245.78,245.79,245.78
		c135.74,0,245.78-110.04,245.78-245.78C1133.45,249.72,1123.47,211.56,1106.08,177.87z"/>
	<g>
		<radialGradient id="SVGID_3_" cx="863.9572" cy="215.3391" r="238.0423" gradientUnits="userSpaceOnUse">
			<stop  offset="0" style="stop-color:#F7941D"/>
			<stop  offset="0.1589" style="stop-color:#F5901F"/>
			<stop  offset="0.3012" style="stop-color:#ED8722"/>
			<stop  offset="0.4372" style="stop-color:#E47826"/>
			<stop  offset="0.5692" style="stop-color:#D96329"/>
			<stop  offset="0.6972" style="stop-color:#CC462C"/>
			<stop  offset="0.8121" style="stop-color:#BE1E2D"/>
		</radialGradient>
		<path class="st3" d="M990.82,67.15c-33.98-19.44-93.73-23.16-123.52-23.77c0,0.14,0,0.27,0,0.4c30.89,2.41,88.3,15.5,62.61,81.61
			c-5.78,14.97-46.31,47.66-46.31,47.66s-11.44,7.61-24.38,20.89c-26.01,18.12-43.05,48.19-43.05,82.3
			c0,55.41,44.9,100.31,100.3,100.31c15.12,0,29.4-3.44,42.25-9.42c32.27-13.69,54.58-40.57,54.58-40.57
			S1154.91,161.13,990.82,67.15z"/>
	</g>
</g>
<g>
	<path class="st4" d="M385.09,903.24v-86.61h22.87l17.99,31.74c5.14,9.12,10.28,19.92,14.13,29.68h0.39
		c-1.29-11.44-1.67-23.13-1.67-36.11v-25.31h17.99v86.61h-20.56l-18.5-33.41c-5.14-9.25-10.79-20.43-15.03-30.58l-0.39,0.13
		c0.51,11.44,0.77,23.64,0.77,37.78v26.08H385.09z"/>
	<path class="st4" d="M534.78,871.12c0,23-16.32,33.54-33.15,33.54c-18.38,0-32.51-12.08-32.51-32.38
		c0-20.3,13.36-33.28,33.54-33.28C521.93,839,534.78,852.23,534.78,871.12z M489.29,871.76c0,10.79,4.5,18.89,12.85,18.89
		c7.58,0,12.46-7.58,12.46-18.89c0-9.38-3.6-18.89-12.46-18.89C492.76,852.87,489.29,862.51,489.29,871.76z"/>
	<path class="st4" d="M546.86,861.1c0-9.25-0.26-15.29-0.51-20.69h16.83l0.64,11.56h0.51c3.21-9.12,10.92-12.98,16.96-12.98
		c1.8,0,2.7,0,4.11,0.26v18.38c-1.41-0.26-3.08-0.51-5.27-0.51c-7.2,0-12.08,3.86-13.36,9.89c-0.26,1.29-0.39,2.83-0.39,4.37v31.87
		h-19.53V861.1z"/>
	<path class="st4" d="M620.22,822.42v17.99h14.01v14.39h-14.01v22.74c0,7.58,1.8,11.05,7.71,11.05c2.44,0,4.37-0.26,5.78-0.51
		l0.13,14.78c-2.57,1.03-7.2,1.67-12.72,1.67c-6.3,0-11.56-2.18-14.65-5.4c-3.6-3.73-5.4-9.77-5.4-18.63v-25.7h-8.35v-14.39h8.35
		v-13.62L620.22,822.42z"/>
	<path class="st4" d="M645.53,812.01h19.53v35.85h0.26c2.06-2.7,4.63-4.75,7.71-6.42c2.83-1.54,6.55-2.44,10.15-2.44
		c12.46,0,21.97,8.61,21.97,27.5v36.75h-19.53v-34.57c0-8.22-2.83-13.88-10.15-13.88c-5.14,0-8.35,3.34-9.77,6.81
		c-0.51,1.28-0.64,2.96-0.64,4.37v37.26h-19.53V812.01z"/>
	<path class="st4" d="M767.59,881.01l-6.17,22.23h-20.3l26.47-86.61h25.7l26.86,86.61h-21.07l-6.68-22.23H767.59z M789.57,866.36
		l-5.4-18.38c-1.54-5.14-3.08-11.56-4.37-16.7h-0.26c-1.28,5.14-2.57,11.69-3.98,16.7l-5.14,18.38H789.57z"/>
	<path class="st4" d="M830.3,860.45c0-7.84-0.26-14.52-0.51-20.04h16.45l0.9,8.48h0.39c2.7-3.98,8.22-9.89,19.02-9.89
		c8.09,0,14.52,4.11,17.22,10.67h0.26c2.31-3.21,5.14-5.78,8.1-7.58c3.47-2.06,7.32-3.08,11.95-3.08c12.08,0,21.2,8.48,21.2,27.24
		v37.01h-19.02v-34.18c0-9.12-2.96-14.39-9.25-14.39c-4.5,0-7.71,3.08-8.99,6.81c-0.51,1.41-0.77,3.47-0.77,5.01v36.75H868.2v-35.21
		c0-7.97-2.83-13.36-8.99-13.36c-5.01,0-7.97,3.86-9.12,7.07c-0.64,1.54-0.77,3.34-0.77,4.88v36.62H830.3V860.45z"/>
	<path class="st4" d="M955.83,878.06c0.64,8.09,8.61,11.95,17.73,11.95c6.68,0,12.08-0.9,17.35-2.57l2.57,13.23
		c-6.42,2.57-14.26,3.86-22.74,3.86c-21.33,0-33.54-12.34-33.54-32c0-15.93,9.89-33.54,31.74-33.54c20.3,0,28.01,15.8,28.01,31.35
		c0,3.34-0.39,6.3-0.64,7.71H955.83z M978.83,864.69c0-4.75-2.06-12.72-11.05-12.72c-8.22,0-11.56,7.45-12.08,12.72H978.83z"/>
	<path class="st4" d="M1008.63,861.1c0-9.25-0.26-15.29-0.51-20.69h16.83l0.64,11.56h0.51c3.21-9.12,10.92-12.98,16.96-12.98
		c1.8,0,2.7,0,4.11,0.26v18.38c-1.41-0.26-3.08-0.51-5.27-0.51c-7.2,0-12.08,3.86-13.36,9.89c-0.26,1.29-0.39,2.83-0.39,4.37v31.87
		h-19.53V861.1z"/>
	<path class="st4" d="M1077.63,822.93c0,5.4-4.11,9.77-10.54,9.77c-6.17,0-10.28-4.37-10.15-9.77c-0.13-5.65,3.98-9.89,10.28-9.89
		C1073.52,813.04,1077.5,817.28,1077.63,822.93z M1057.46,903.24v-62.83h19.53v62.83H1057.46z"/>
	<path class="st4" d="M1139.82,901.7c-3.47,1.54-10.02,2.83-17.47,2.83c-20.3,0-33.28-12.34-33.28-32.12
		c0-18.37,12.59-33.41,35.98-33.41c5.14,0,10.79,0.9,14.91,2.44l-3.08,14.52c-2.31-1.03-5.78-1.93-10.92-1.93
		c-10.28,0-16.96,7.32-16.83,17.6c0,11.56,7.71,17.6,17.22,17.6c4.63,0,8.22-0.77,11.18-1.93L1139.82,901.7z"/>
	<path class="st4" d="M1186.84,903.24l-1.16-6.3h-0.39c-4.11,5.01-10.54,7.71-17.99,7.71c-12.72,0-20.3-9.25-20.3-19.27
		c0-16.32,14.65-24.16,36.88-24.03v-0.9c0-3.34-1.8-8.09-11.44-8.09c-6.42,0-13.23,2.18-17.35,4.75l-3.6-12.59
		c4.37-2.44,12.98-5.53,24.41-5.53c20.94,0,27.63,12.33,27.63,27.11v21.84c0,6.04,0.26,11.82,0.9,15.29H1186.84z M1184.53,873.56
		c-10.28-0.13-18.25,2.31-18.25,9.89c0,5.01,3.34,7.45,7.71,7.45c4.88,0,8.87-3.21,10.15-7.2c0.26-1.03,0.39-2.18,0.39-3.34V873.56z
		"/>
	<path class="st4" d="M1265.22,816.64v86.61h-19.66v-86.61H1265.22z"/>
	<path class="st4" d="M1281.92,860.45c0-7.84-0.26-14.52-0.51-20.04h16.96l0.9,8.61h0.39c2.57-3.98,9-10.02,19.4-10.02
		c12.85,0,22.49,8.48,22.49,26.98v37.26h-19.53v-34.82c0-8.09-2.83-13.62-9.89-13.62c-5.4,0-8.61,3.73-9.89,7.32
		c-0.51,1.16-0.77,3.08-0.77,4.88v36.24h-19.53V860.45z"/>
	<path class="st4" d="M1404.37,901.7c-3.47,1.54-10.02,2.83-17.47,2.83c-20.3,0-33.28-12.34-33.28-32.12
		c0-18.37,12.59-33.41,35.98-33.41c5.14,0,10.79,0.9,14.91,2.44l-3.08,14.52c-2.31-1.03-5.78-1.93-10.92-1.93
		c-10.28,0-16.96,7.32-16.83,17.6c0,11.56,7.71,17.6,17.22,17.6c4.63,0,8.22-0.77,11.18-1.93L1404.37,901.7z"/>
	<path class="st4" d="M1412.85,892.83c0-6.94,4.75-11.95,11.56-11.95s11.44,4.88,11.44,11.95c0,6.81-4.62,11.82-11.56,11.82
		C1417.6,904.66,1412.85,899.64,1412.85,892.83z"/>
</g>
</svg>
