<svg width="533" height="300" viewBox="0 0 533 300" fill="none" xmlns="http://www.w3.org/2000/svg">
<g clip-path="url(#clip0_19017_1277)">
<path d="M129.12 93.0343C126.337 93.0171 123.538 93.0858 120.755 92.9999C119.347 92.9655 118.488 93.4812 117.973 94.8048C116.925 97.4005 115.791 99.9446 114.675 102.506C109.196 115.106 103.7 127.689 98.2549 140.306C97.7568 141.492 97.2415 142.679 96.7262 143.865C96.6232 144.105 96.5029 144.329 96.3827 144.552L89.667 159.868C87.0219 165.971 84.3768 172.09 81.7318 178.176C81.5085 178.691 81.4398 179.43 80.7528 179.448C80.0314 179.482 79.9455 178.726 79.7394 178.227C78.1936 174.634 76.6649 171.042 75.1363 167.449H75.1191C74.2088 165.283 73.2813 163.117 72.3366 160.968L71.2374 158.407L67.4072 149.468L66.2221 146.735C58.8365 129.425 51.3994 112.081 44.0482 94.7361C43.5157 93.4812 42.7943 92.9999 41.4718 93.0171C38.466 93.0686 35.4603 93.0858 32.4545 92.9999C30.7026 92.9483 30.3591 93.4124 31.0805 95.0798C36.3362 107.164 41.5062 119.283 46.6932 131.385C49.5444 138.037 52.3612 144.69 55.1952 151.342C55.5903 152.236 58.6304 159.198 59.3346 160.848C65.432 175.305 71.6153 189.71 77.7985 204.098C78.3997 205.49 78.7604 207.433 80.6841 207.415C82.6421 207.415 82.9341 205.456 83.5352 204.046C91.1269 186.667 98.7186 169.288 106.19 151.858C107.066 149.812 110.931 140.96 111.154 140.444C112.064 138.278 113.009 136.112 113.954 133.946C119.553 121.157 125.152 108.368 130.751 95.5955C131.765 93.2749 131.662 93.0514 129.12 93.0343Z" fill="#6D6E71"/>
<path d="M364.84 170.836C365.338 167.432 366.351 164.252 367.107 161.003C367.485 159.387 368.258 158.751 369.924 158.785C377.017 158.906 376.21 158.081 374.475 164.561C370.886 178.055 367.21 191.515 363.672 205.026C363.174 206.9 362.246 207.57 360.46 207.759C354.758 208.395 354.431 208.12 356.08 202.706C357.574 197.841 359.017 192.959 359.653 187.905C360.511 181.201 358.983 175.253 353.813 170.543C352.027 168.928 351.614 168.979 351.03 171.214C348.008 182.628 344.967 194.042 342.03 205.473C341.618 207.072 340.828 207.725 339.248 207.862C333.511 208.327 333.03 207.759 334.49 202.345C338.114 188.868 341.687 175.374 345.294 161.897C346.153 158.682 346.616 158.373 349.794 159.318C355.239 160.934 359.223 164.578 362.727 168.842C363.174 169.392 363.62 169.959 364.101 170.492C364.221 170.629 364.462 170.681 364.805 170.853L364.84 170.836Z" fill="#6D6E71"/>
<path d="M296.068 199.353C295.141 199.353 294.213 199.353 293.286 199.353C290.074 199.353 289.953 199.474 290.074 202.774C290.074 202.843 290.074 202.912 290.074 202.98C289.885 204.51 291.499 206.797 290.125 207.347C288.236 208.086 285.78 207.605 283.598 207.347C282.276 207.192 282.327 205.817 282.242 204.751C281.4 194.936 284.32 186.186 290.142 178.416C297.459 168.652 307.009 162.034 318.912 159.043C321.711 158.338 322.072 158.751 321.351 161.467C317.778 174.892 314.188 188.3 310.599 201.708C310.461 202.19 310.375 202.688 310.187 203.152C309.637 204.596 310.152 206.814 308.658 207.398C306.803 208.137 304.587 207.966 302.526 207.742C301.169 207.605 300.929 206.676 301.169 205.559C301.444 204.235 301.77 202.912 302.148 201.605C302.612 199.989 301.977 199.319 300.362 199.353C298.936 199.388 297.494 199.353 296.068 199.353C296.068 199.353 296.068 199.336 296.068 199.319V199.353ZM310.187 171.025C301.977 175.494 296.205 181.648 292.581 189.83C291.98 191.205 292.736 191.463 293.852 191.463C297.133 191.463 300.414 191.429 303.694 191.48C305.103 191.498 305.48 190.655 305.772 189.521C306.889 185.172 308.057 180.823 309.19 176.474C309.62 174.841 310.221 173.225 310.187 171.025Z" fill="#6D6E71"/>
<path d="M181.368 207.519C180.647 207.519 179.943 207.501 179.221 207.519C177.847 207.57 177.177 206.934 176.92 205.559C176.25 201.966 175.443 198.425 174.738 194.833C174.464 193.389 173.725 192.821 172.231 192.873C170.771 192.924 169.654 193.01 169.225 194.815C168.418 198.305 167.336 201.708 166.46 205.181C165.962 207.14 164.794 207.794 162.853 207.673C157.734 207.312 157.734 207.364 159.057 202.379C162.75 188.489 166.46 174.6 170.118 160.693C170.479 159.353 171.149 158.785 172.523 158.803C175.889 158.837 179.256 158.665 182.605 158.82C191.605 159.232 197.651 168.824 194.611 177.746C192.739 183.229 188.943 187.149 184.134 190.054C182.433 191.085 182.055 192.082 182.502 193.87C183.361 197.411 184.082 200.986 184.855 204.562C185.491 207.536 185.473 207.553 182.433 207.553C182.073 207.553 181.712 207.553 181.368 207.553V207.519ZM179.565 166.71C178.139 166.607 176.851 166.59 176.387 168.412C175.099 173.38 173.742 178.33 172.368 183.281C171.99 184.656 172.437 185.137 173.811 185C178.758 184.467 182.863 182.456 185.525 178.09C187.036 175.597 188.204 172.847 186.779 169.993C185.336 167.122 182.365 166.933 179.565 166.71Z" fill="#6D6E71"/>
<path d="M135.939 158.785C138.876 158.785 141.813 158.854 144.732 158.751C146.278 158.699 146.605 159.232 146.261 160.642C144.544 167.535 145.437 166.607 139.047 166.693C136.9 166.727 134.753 166.744 132.606 166.693C131.404 166.675 130.751 167.208 130.442 168.326C129.635 171.3 128.828 174.256 127.969 177.213C127.608 178.468 128.072 178.949 129.309 178.949C131.456 178.949 133.603 179.001 135.75 178.949C137.364 178.897 138.103 179.379 137.364 181.081C137.192 181.476 137.089 181.888 136.969 182.301C135.561 186.891 135.561 186.839 130.648 186.908C124.723 186.977 125.77 185.808 124.036 191.962C123.503 193.818 123.091 195.709 122.473 197.548C121.94 199.147 122.524 199.628 124.053 199.611C127.265 199.577 130.494 199.646 133.706 199.594C135.251 199.56 135.767 200.024 135.32 201.622C133.465 208.223 135.131 207.587 127.866 207.501C123.074 207.45 118.316 208.223 113.507 207.673C111.772 207.484 111.738 206.848 112.133 205.456C116.255 191.223 119.965 176.886 123.692 162.55C124.654 158.871 124.723 158.785 128.416 158.785C130.923 158.785 133.431 158.785 135.921 158.785H135.939Z" fill="#6D6E71"/>
<path d="M460.646 158.803C463.583 158.803 466.503 158.871 469.44 158.785C470.969 158.734 471.261 159.284 471.003 160.711C469.921 166.624 469.87 166.693 463.927 166.71C461.78 166.71 459.633 166.727 457.486 166.676C456.232 166.641 455.493 167.071 455.184 168.36C454.497 171.214 453.707 174.033 452.951 176.869C452.556 178.33 453.02 179.035 454.6 178.983C456.524 178.932 458.465 179.035 460.389 178.966C462.02 178.897 462.673 179.448 462.123 181.098C459.959 187.647 462.072 186.839 454.755 186.874C450.169 186.891 450.186 186.874 449.035 191.223C448.503 193.234 447.953 195.228 447.369 197.222C446.888 198.855 447.318 199.646 449.156 199.611C452.367 199.542 455.596 199.611 458.808 199.577C460.268 199.56 460.681 199.989 460.234 201.502C458.516 207.484 458.551 207.45 452.385 207.519C448.022 207.57 443.677 207.776 439.314 207.811C436.772 207.811 436.48 207.278 437.15 204.803C441.031 190.363 444.948 175.941 448.726 161.484C449.259 159.439 450.135 158.613 452.247 158.734C455.03 158.889 457.829 158.768 460.612 158.768L460.646 158.803Z" fill="#6D6E71"/>
<path d="M416.178 158.802C419.115 158.906 422.413 160.762 424.835 164.217C425.797 165.575 425.917 166.71 423.993 167.329C423.392 167.518 422.757 167.793 422.258 168.171C420.352 169.598 418.669 169.838 416.917 167.793C416.024 166.744 414.65 166.865 413.31 167.208C409.669 168.137 407.161 170.646 405.065 173.448C400.754 179.224 398.195 185.636 399.14 193.062C399.209 193.56 399.294 194.059 399.397 194.54C400.565 199.56 404.052 200.385 408.191 197.927C411.712 195.847 411.609 195.692 414.461 198.528C417.071 201.124 417.054 201.21 414.117 203.513C410.837 206.092 407.109 207.639 403.004 207.347C397.422 206.934 394.245 203.049 392.355 198.253C390.174 192.701 390.775 187.011 392.527 181.407C394.846 173.947 398.384 167.26 404.756 162.412C407.882 160.023 411.455 158.82 416.195 158.837L416.178 158.802Z" fill="#6D6E71"/>
<path d="M220.426 207.862C217.352 207.862 214.277 207.897 211.22 207.862C208.815 207.828 208.506 207.312 209.142 204.957C213.023 190.518 216.939 176.078 220.718 161.622C221.302 159.404 222.195 158.665 224.514 158.751C230.268 158.957 229.804 158.356 228.327 163.822C225.27 175.081 222.298 186.358 219.241 197.617C218.829 199.147 219.172 199.749 220.787 199.646C222.281 199.56 223.793 199.611 225.287 199.646C227.829 199.68 227.949 199.835 227.296 202.19C227.279 202.258 227.262 202.327 227.245 202.396C225.579 208.086 226.764 207.553 220.409 207.897L220.426 207.862Z" fill="#6D6E71"/>
<path d="M252.665 207.553C249.986 207.427 248.989 206.063 249.676 203.462C253.455 189.28 257.251 175.099 260.978 160.917C261.373 159.404 262.026 158.82 263.606 158.785C269.772 158.682 269.772 158.631 268.192 164.596C264.722 177.677 261.236 190.741 257.766 203.823C256.718 207.742 256.701 207.759 252.682 207.553H252.665Z" fill="#6D6E71"/>
<path d="M501.748 196.912C501.748 199.921 501.748 202.929 501.748 205.937C501.748 206.504 501.782 207.192 501.147 207.433C500.477 207.708 500.099 207.072 499.756 206.676C496.114 202.551 492.49 198.391 488.866 194.248C488.505 193.835 488.265 193.079 487.612 193.285C486.942 193.492 487.166 194.265 487.166 194.798C487.149 198.098 487.166 201.382 487.131 204.682C487.131 205.387 487.028 206.109 486.839 206.796C486.702 207.295 486.273 207.639 485.706 207.622C485.122 207.622 484.761 207.226 484.658 206.711C484.521 206.023 484.469 205.301 484.452 204.579C484.435 199.13 484.418 193.698 484.435 188.249C484.435 187.492 484.143 186.512 485.053 186.134C486.049 185.739 486.565 186.633 487.114 187.269C490.549 191.291 494.002 195.296 497.454 199.319C497.763 199.68 498.021 200.282 498.605 200.058C499.172 199.835 499 199.199 499 198.717C499.017 195.211 499 191.704 499.034 188.197C499.034 187.252 498.776 185.98 500.305 185.962C501.937 185.962 501.731 187.252 501.731 188.3C501.748 191.171 501.731 194.024 501.731 196.895L501.748 196.912Z" fill="#1D81E2"/>
<path d="M517.12 207.948C510.628 207.948 506.488 204.665 505.234 198.941C504.118 193.749 506.66 188.678 511.555 186.375C516.072 184.243 522.05 185.275 524.952 188.73C525.485 189.366 526.584 190.088 525.588 191.051C524.729 191.893 523.716 191.498 522.874 190.81C521.5 189.71 520.246 188.558 518.254 188.403C514.389 188.094 510.439 189.968 509.168 193.079C507.45 197.239 508.446 201.072 511.864 203.548C515.008 205.817 519.353 205.679 522.427 203.204C522.702 202.98 522.96 202.723 523.252 202.516C523.922 202.069 524.643 201.605 525.313 202.482C525.931 203.307 525.777 204.081 524.987 204.734C522.565 206.779 519.937 208.258 517.103 207.931L517.12 207.948Z" fill="#1D81E2"/>
<path d="M477.547 196.5C477.547 193.629 477.547 190.776 477.547 187.905C477.547 186.942 477.564 185.963 478.921 185.945C480.312 185.945 480.261 186.977 480.261 187.905C480.261 193.56 480.261 199.216 480.244 204.871C480.244 205.164 480.227 205.439 480.192 205.731C480.089 206.625 479.9 207.605 478.835 207.622C477.667 207.639 477.616 206.573 477.616 205.731C477.581 202.654 477.616 199.577 477.616 196.5C477.616 196.5 477.581 196.5 477.564 196.5H477.547Z" fill="#1D81E2"/>
<path d="M113.18 146.701C124.121 143.521 134.908 139.842 145.127 134.789C150.023 132.365 154.608 129.236 158.37 125.145C160.122 123.237 159.744 120.16 157.477 118.905C155.57 117.857 153.647 116.739 151.345 116.808C150.967 116.808 150.658 116.653 150.503 116.069C154.505 115.742 158.37 116.189 162.166 117.255C163.454 117.616 164.725 118.028 165.962 118.51C170.496 120.28 171.355 124.286 167.988 127.809C165.326 130.594 162.338 132.966 158.988 134.857C145.866 142.266 131.748 147.131 117.32 151.291C73.8652 163.221 60.8116 162.602 57.5654 163.616C46.4355 164.905 35.2712 165.163 24.0898 164.905C19.5211 164.802 15.0382 163.753 10.8645 161.794C9.97135 161.381 9.16409 160.728 8.44271 160.075C6.89689 158.682 6.6049 157.221 7.6698 155.193C10.0401 150.689 14.2825 148.42 18.1985 145.738C19.2291 145.034 20.3799 144.501 21.9429 143.624C21.3761 144.982 20.5688 145.412 19.9333 145.996C18.5077 147.268 16.9791 148.454 15.9829 150.139C14.729 152.253 14.8664 153.061 16.6699 154.729C19.023 156.895 21.9944 157.445 24.9658 158.012C31.0288 159.147 37.1778 158.803 43.2752 158.751C47.2256 158.717 51.176 158.7 55.0921 158.012C59.0769 157.565 63.0616 157.135 67.0464 156.688C70.5159 156.138 73.9854 155.674 77.4377 155.038C82.6763 154.076 112.013 147.045 113.215 146.701H113.18Z" fill="#1E82E1"/>
</g>
<defs>
<clipPath id="clip0_19017_1277">
<rect width="519" height="115" fill="white" transform="translate(7 93)"/>
</clipPath>
</defs>
</svg>
