<svg width="303" height="67" viewBox="0 0 303 67" fill="none" xmlns="http://www.w3.org/2000/svg">
<g clip-path="url(#clip0_18889_831)">
<path d="M71.1 0.0200051C69.48 0.0100051 67.85 0.0500051 66.23 5.07943e-06C65.41 -0.0199949 64.91 0.280005 64.61 1.05001C64 2.56001 63.34 4.04001 62.69 5.53001C59.5 12.86 56.3 20.18 53.13 27.52C52.84 28.21 52.54 28.9 52.24 29.59C52.18 29.73 52.11 29.86 52.04 29.99L48.13 38.9C46.59 42.45 45.05 46.01 43.51 49.55C43.38 49.85 43.34 50.28 42.94 50.29C42.52 50.31 42.47 49.87 42.35 49.58C41.45 47.49 40.56 45.4 39.67 43.31H39.66C39.13 42.05 38.59 40.79 38.04 39.54L37.4 38.05L35.17 32.85L34.48 31.26C30.18 21.19 25.85 11.1 21.57 1.01001C21.26 0.280005 20.84 5.07943e-06 20.07 0.0100051C18.32 0.0400051 16.57 0.0500051 14.82 5.07943e-06C13.8 -0.0299949 13.6 0.240005 14.02 1.21001C17.08 8.24001 20.09 15.29 23.11 22.33C24.77 26.2 26.41 30.07 28.06 33.94C28.29 34.46 30.06 38.51 30.47 39.47C34.02 47.88 37.62 56.26 41.22 64.63C41.57 65.44 41.78 66.57 42.9 66.56C44.04 66.56 44.21 65.42 44.56 64.6C48.98 54.49 53.4 44.38 57.75 34.24C58.26 33.05 60.51 27.9 60.64 27.6C61.17 26.34 61.72 25.08 62.27 23.82C65.53 16.38 68.79 8.94 72.05 1.51001C72.64 0.160005 72.58 0.0300051 71.1 0.0200051Z" fill="#6D6E71"/>
<path d="M208.34 45.2801C208.63 43.3001 209.22 41.4501 209.66 39.5601C209.88 38.6201 210.33 38.2501 211.3 38.2701C215.43 38.3401 214.96 37.8601 213.95 41.6301C211.86 49.4801 209.72 57.3101 207.66 65.1701C207.37 66.2601 206.83 66.6501 205.79 66.7601C202.47 67.1301 202.28 66.9701 203.24 63.8201C204.11 60.9901 204.95 58.1501 205.32 55.2101C205.82 51.3101 204.93 47.8501 201.92 45.1101C200.88 44.1701 200.64 44.2001 200.3 45.5001C198.54 52.1401 196.77 58.7801 195.06 65.4301C194.82 66.3601 194.36 66.7401 193.44 66.8201C190.1 67.0901 189.82 66.7601 190.67 63.6101C192.78 55.7701 194.86 47.9201 196.96 40.0801C197.46 38.2101 197.73 38.0301 199.58 38.5801C202.75 39.5201 205.07 41.6401 207.11 44.1201C207.37 44.4401 207.63 44.7701 207.91 45.0801C207.98 45.1601 208.12 45.1901 208.32 45.2901L208.34 45.2801Z" fill="#6D6E71"/>
<path d="M168.3 61.87C167.76 61.87 167.22 61.87 166.68 61.87C164.81 61.87 164.74 61.94 164.81 63.86C164.81 63.9 164.81 63.94 164.81 63.98C164.7 64.87 165.64 66.2 164.84 66.52C163.74 66.95 162.31 66.67 161.04 66.52C160.27 66.43 160.3 65.63 160.25 65.01C159.76 59.3 161.46 54.21 164.85 49.69C169.11 44.01 174.67 40.16 181.6 38.42C183.23 38.01 183.44 38.25 183.02 39.83C180.94 47.64 178.85 55.44 176.76 63.24C176.68 63.52 176.63 63.81 176.52 64.08C176.2 64.92 176.5 66.21 175.63 66.55C174.55 66.98 173.26 66.88 172.06 66.75C171.27 66.67 171.13 66.13 171.27 65.48C171.43 64.71 171.62 63.94 171.84 63.18C172.11 62.24 171.74 61.85 170.8 61.87C169.97 61.89 169.13 61.87 168.3 61.87C168.3 61.87 168.3 61.86 168.3 61.85V61.87ZM176.52 45.39C171.74 47.99 168.38 51.57 166.27 56.33C165.92 57.13 166.36 57.28 167.01 57.28C168.92 57.28 170.83 57.26 172.74 57.29C173.56 57.3 173.78 56.81 173.95 56.15C174.6 53.62 175.28 51.09 175.94 48.56C176.19 47.61 176.54 46.67 176.52 45.39Z" fill="#6D6E71"/>
<path d="M101.52 66.62C101.1 66.62 100.69 66.61 100.27 66.62C99.4701 66.65 99.0801 66.28 98.9301 65.48C98.5401 63.39 98.0701 61.33 97.6601 59.24C97.5001 58.4 97.0701 58.07 96.2001 58.1C95.3501 58.13 94.7001 58.18 94.4501 59.23C93.9801 61.26 93.3501 63.24 92.8401 65.26C92.5501 66.4 91.8701 66.78 90.7401 66.71C87.7601 66.5 87.7601 66.53 88.5301 63.63C90.6801 55.55 92.8401 47.47 94.9701 39.38C95.1801 38.6 95.5701 38.27 96.3701 38.28C98.3301 38.3 100.29 38.2 102.24 38.29C107.48 38.53 111 44.11 109.23 49.3C108.14 52.49 105.93 54.77 103.13 56.46C102.14 57.06 101.92 57.64 102.18 58.68C102.68 60.74 103.1 62.82 103.55 64.9C103.92 66.63 103.91 66.64 102.14 66.64C101.93 66.64 101.72 66.64 101.52 66.64V66.62ZM100.47 42.88C99.6401 42.82 98.8901 42.81 98.6201 43.87C97.8701 46.76 97.0801 49.64 96.2801 52.52C96.0601 53.32 96.3201 53.6 97.1201 53.52C100 53.21 102.39 52.04 103.94 49.5C104.82 48.05 105.5 46.45 104.67 44.79C103.83 43.12 102.1 43.01 100.47 42.88Z" fill="#6D6E71"/>
<path d="M75.07 38.27C76.78 38.27 78.49 38.31 80.19 38.25C81.09 38.22 81.28 38.53 81.08 39.35C80.08 43.36 80.6 42.82 76.88 42.87C75.63 42.89 74.38 42.9 73.13 42.87C72.43 42.86 72.05 43.17 71.87 43.82C71.4 45.55 70.93 47.27 70.43 48.99C70.22 49.72 70.49 50 71.21 50C72.46 50 73.71 50.03 74.96 50C75.9 49.97 76.33 50.25 75.9 51.24C75.8 51.47 75.74 51.71 75.67 51.95C74.85 54.62 74.85 54.59 71.99 54.63C68.54 54.67 69.15 53.99 68.14 57.57C67.83 58.65 67.59 59.75 67.23 60.82C66.92 61.75 67.26 62.03 68.15 62.02C70.02 62 71.9 62.04 73.77 62.01C74.67 61.99 74.97 62.26 74.71 63.19C73.63 67.03 74.6 66.66 70.37 66.61C67.58 66.58 64.81 67.03 62.01 66.71C61 66.6 60.98 66.23 61.21 65.42C63.61 57.14 65.77 48.8 67.94 40.46C68.5 38.32 68.54 38.27 70.69 38.27C72.15 38.27 73.61 38.27 75.06 38.27H75.07Z" fill="#6D6E71"/>
<path d="M264.12 38.28C265.83 38.28 267.53 38.32 269.24 38.27C270.13 38.24 270.3 38.56 270.15 39.39C269.52 42.83 269.49 42.87 266.03 42.88C264.78 42.88 263.53 42.89 262.28 42.86C261.55 42.84 261.12 43.09 260.94 43.84C260.54 45.5 260.08 47.14 259.64 48.79C259.41 49.64 259.68 50.05 260.6 50.02C261.72 49.99 262.85 50.05 263.97 50.01C264.92 49.97 265.3 50.29 264.98 51.25C263.72 55.06 264.95 54.59 260.69 54.61C258.02 54.62 258.03 54.61 257.36 57.14C257.05 58.31 256.73 59.47 256.39 60.63C256.11 61.58 256.36 62.04 257.43 62.02C259.3 61.98 261.18 62.02 263.05 62C263.9 61.99 264.14 62.24 263.88 63.12C262.88 66.6 262.9 66.58 259.31 66.62C256.77 66.65 254.24 66.77 251.7 66.79C250.22 66.79 250.05 66.48 250.44 65.04C252.7 56.64 254.98 48.25 257.18 39.84C257.49 38.65 258 38.17 259.23 38.24C260.85 38.33 262.48 38.26 264.1 38.26L264.12 38.28Z" fill="#6D6E71"/>
<path d="M238.23 38.28C239.94 38.34 241.86 39.42 243.27 41.43C243.83 42.22 243.9 42.88 242.78 43.24C242.43 43.35 242.06 43.51 241.77 43.73C240.66 44.56 239.68 44.7 238.66 43.51C238.14 42.9 237.34 42.97 236.56 43.17C234.44 43.71 232.98 45.17 231.76 46.8C229.25 50.16 227.76 53.89 228.31 58.21C228.35 58.5 228.4 58.79 228.46 59.07C229.14 61.99 231.17 62.47 233.58 61.04C235.63 59.83 235.57 59.74 237.23 61.39C238.75 62.9 238.74 62.95 237.03 64.29C235.12 65.79 232.95 66.69 230.56 66.52C227.31 66.28 225.46 64.02 224.36 61.23C223.09 58 223.44 54.69 224.46 51.43C225.81 47.09 227.87 43.2 231.58 40.38C233.4 38.99 235.48 38.29 238.24 38.3L238.23 38.28Z" fill="#6D6E71"/>
<path d="M124.26 66.8199C122.47 66.8199 120.68 66.8399 118.9 66.8199C117.5 66.7999 117.32 66.4999 117.69 65.1299C119.95 56.7299 122.23 48.3299 124.43 39.9199C124.77 38.6299 125.29 38.1999 126.64 38.2499C129.99 38.3699 129.72 38.0199 128.86 41.1999C127.08 47.7499 125.35 54.3099 123.57 60.8599C123.33 61.7499 123.53 62.0999 124.47 62.0399C125.34 61.9899 126.22 62.0199 127.09 62.0399C128.57 62.0599 128.64 62.1499 128.26 63.5199C128.25 63.5599 128.24 63.5999 128.23 63.6399C127.26 66.9499 127.95 66.6399 124.25 66.8399L124.26 66.8199Z" fill="#6D6E71"/>
<path d="M143.03 66.6401C141.47 66.5667 140.89 65.7734 141.29 64.2601C143.49 56.0101 145.7 47.7601 147.87 39.5101C148.1 38.6301 148.48 38.2901 149.4 38.2701C152.99 38.2101 152.99 38.1801 152.07 41.6501C150.05 49.2601 148.02 56.8601 146 64.4701C145.39 66.7501 145.38 66.7601 143.04 66.6401H143.03Z" fill="#6D6E71"/>
<path d="M288.05 60.45C288.05 62.2 288.05 63.95 288.05 65.7C288.05 66.03 288.07 66.43 287.7 66.57C287.31 66.73 287.09 66.36 286.89 66.13C284.77 63.73 282.66 61.31 280.55 58.9C280.34 58.66 280.2 58.22 279.82 58.34C279.43 58.46 279.56 58.91 279.56 59.22C279.55 61.14 279.56 63.05 279.54 64.97C279.54 65.38 279.48 65.8 279.37 66.2C279.29 66.49 279.04 66.69 278.71 66.68C278.37 66.68 278.16 66.45 278.1 66.15C278.02 65.75 277.99 65.33 277.98 64.91C277.97 61.74 277.96 58.58 277.97 55.41C277.97 54.97 277.8 54.4 278.33 54.18C278.91 53.95 279.21 54.47 279.53 54.84C281.53 57.18 283.54 59.51 285.55 61.85C285.73 62.06 285.88 62.41 286.22 62.28C286.55 62.15 286.45 61.78 286.45 61.5C286.46 59.46 286.45 57.42 286.47 55.38C286.47 54.83 286.32 54.09 287.21 54.08C288.16 54.08 288.04 54.83 288.04 55.44C288.05 57.11 288.04 58.77 288.04 60.44L288.05 60.45Z" fill="#1D81E2"/>
<path d="M297 66.87C293.22 66.87 290.81 64.96 290.08 61.63C289.43 58.61 290.91 55.66 293.76 54.32C296.39 53.08 299.87 53.68 301.56 55.69C301.87 56.06 302.51 56.48 301.93 57.04C301.43 57.53 300.84 57.3 300.35 56.9C299.55 56.26 298.82 55.59 297.66 55.5C295.41 55.32 293.11 56.41 292.37 58.22C291.37 60.64 291.95 62.87 293.94 64.31C295.77 65.63 298.3 65.55 300.09 64.11C300.25 63.98 300.4 63.83 300.57 63.71C300.96 63.45 301.38 63.18 301.77 63.69C302.13 64.17 302.04 64.62 301.58 65C300.17 66.19 298.64 67.05 296.99 66.86L297 66.87Z" fill="#1D81E2"/>
<path d="M273.96 60.2099C273.96 58.5399 273.96 56.8799 273.96 55.2099C273.96 54.6499 273.97 54.0799 274.76 54.0699C275.57 54.0699 275.54 54.6699 275.54 55.2099C275.54 58.4999 275.54 61.7899 275.53 65.0799C275.53 65.2499 275.52 65.4099 275.5 65.5799C275.44 66.0999 275.33 66.6699 274.71 66.6799C274.03 66.6899 274 66.0699 274 65.5799C273.98 63.7899 274 61.9999 274 60.2099C274 60.2099 273.98 60.2099 273.97 60.2099H273.96Z" fill="#1D81E2"/>
<path d="M61.82 31.24C68.19 29.39 74.47 27.2501 80.42 24.3101C83.27 22.9001 85.94 21.0801 88.13 18.7001C89.15 17.5901 88.93 15.8 87.61 15.07C86.5 14.46 85.38 13.8101 84.04 13.8501C83.82 13.8501 83.64 13.7601 83.55 13.4201C85.88 13.2301 88.13 13.49 90.34 14.11C91.09 14.32 91.83 14.5601 92.55 14.8401C95.19 15.8701 95.69 18.2001 93.73 20.2501C92.18 21.8701 90.44 23.2501 88.49 24.3501C80.85 28.6601 72.63 31.49 64.23 33.91C38.93 40.85 31.33 40.4901 29.44 41.0801C22.96 41.8301 16.46 41.9801 9.95001 41.8301C7.29001 41.7701 4.68001 41.1601 2.25001 40.0201C1.73001 39.7801 1.26001 39.4001 0.840008 39.0201C-0.059992 38.2101 -0.229992 37.36 0.390008 36.18C1.77001 33.5601 4.24001 32.24 6.52001 30.68C7.12001 30.27 7.79001 29.9601 8.70001 29.4501C8.37001 30.2401 7.90001 30.49 7.53001 30.83C6.70001 31.57 5.81001 32.2601 5.23001 33.2401C4.50001 34.4701 4.58001 34.94 5.63001 35.91C7.00001 37.17 8.73001 37.49 10.46 37.82C13.99 38.48 17.57 38.28 21.12 38.25C23.42 38.23 25.72 38.22 28 37.82C30.32 37.56 32.64 37.31 34.96 37.05C36.98 36.73 39 36.46 41.01 36.09C44.06 35.53 61.14 31.44 61.84 31.24H61.82Z" fill="#1E82E1"/>
</g>
<defs>
<clipPath id="clip0_18889_831">
<rect width="302.17" height="66.9" fill="white"/>
</clipPath>
</defs>
</svg>
