<svg width="500" height="235" viewBox="0 0 500 235" fill="none" xmlns="http://www.w3.org/2000/svg">
<g clip-path="url(#clip0_19017_1309)">
<path d="M118.178 62.0332C115.509 62.0166 112.822 62.083 110.152 62C108.801 61.9668 107.977 62.4646 107.482 63.7421C106.477 66.2475 105.389 68.7031 104.318 71.1753C99.0607 83.3372 93.7868 95.4825 88.5624 107.661C88.0845 108.806 87.5901 109.951 87.0956 111.096C86.9967 111.328 86.8814 111.543 86.766 111.759L80.322 126.543C77.784 132.433 75.2459 138.339 72.7079 144.213C72.4936 144.711 72.4277 145.424 71.7685 145.441C71.0763 145.474 70.9939 144.744 70.7961 144.263C69.3129 140.795 67.8461 137.327 66.3793 133.86H66.3628C65.4893 131.769 64.5993 129.678 63.6929 127.604L62.6381 125.132L58.9629 116.504L57.8257 113.866C50.739 97.1583 43.6028 80.417 36.549 63.6758C36.0381 62.4646 35.3459 62 34.0769 62.0166C31.1928 62.0664 28.3087 62.083 25.4245 62C23.7435 61.9502 23.4139 62.3982 24.1061 64.0076C29.1492 75.6717 34.1099 87.3691 39.0871 99.0498C41.8229 105.471 44.5257 111.892 47.2451 118.313C47.6241 119.176 50.5412 125.896 51.2169 127.488C57.0676 141.442 63.0007 155.346 68.9338 169.234C69.5106 170.578 69.8567 172.452 71.7026 172.436C73.5814 172.436 73.8616 170.544 74.4384 169.184C81.7229 152.409 89.0074 135.635 96.1765 118.811C97.0171 116.836 100.725 108.291 100.939 107.794C101.813 105.703 102.719 103.613 103.626 101.522C108.999 89.1776 114.371 76.8332 119.744 64.5054C120.716 62.2655 120.618 62.0498 118.178 62.0332Z" fill="#6D6E71"/>
<path d="M344.361 137.128C344.839 133.843 345.811 130.774 346.536 127.638C346.899 126.078 347.64 125.464 349.239 125.497C356.046 125.614 355.271 124.817 353.606 131.072C350.162 144.097 346.635 157.088 343.24 170.13C342.762 171.938 341.872 172.585 340.158 172.768C334.687 173.382 334.373 173.116 335.956 167.89C337.389 163.194 338.774 158.482 339.384 153.604C340.208 147.133 338.741 141.392 333.78 136.846C332.066 135.287 331.671 135.336 331.11 137.493C328.21 148.51 325.292 159.527 322.474 170.561C322.079 172.104 321.321 172.735 319.804 172.867C314.3 173.315 313.838 172.768 315.239 167.541C318.717 154.533 322.145 141.509 325.606 128.501C326.43 125.398 326.875 125.099 329.924 126.012C335.148 127.571 338.972 131.089 342.334 135.204C342.762 135.735 343.191 136.282 343.652 136.796C343.767 136.929 343.998 136.979 344.328 137.145L344.361 137.128Z" fill="#6D6E71"/>
<path d="M278.372 164.654C277.482 164.654 276.592 164.654 275.702 164.654C272.62 164.654 272.504 164.77 272.62 167.956C272.62 168.022 272.62 168.089 272.62 168.155C272.439 169.632 273.988 171.838 272.669 172.369C270.856 173.083 268.5 172.618 266.407 172.369C265.138 172.22 265.187 170.893 265.105 169.864C264.297 160.39 267.099 151.945 272.686 144.445C279.707 135.021 288.87 128.633 300.291 125.746C302.977 125.066 303.324 125.464 302.631 128.086C299.203 141.044 295.759 153.986 292.314 166.927C292.183 167.392 292.1 167.873 291.919 168.321C291.391 169.715 291.886 171.855 290.452 172.419C288.672 173.133 286.546 172.967 284.568 172.751C283.266 172.618 283.036 171.722 283.266 170.644C283.53 169.366 283.843 168.089 284.206 166.828C284.651 165.268 284.041 164.621 282.492 164.654C281.124 164.687 279.74 164.654 278.372 164.654C278.372 164.654 278.372 164.638 278.372 164.621V164.654ZM291.919 137.311C284.041 141.625 278.503 147.564 275.026 155.462C274.449 156.79 275.174 157.038 276.246 157.038C279.393 157.038 282.541 157.005 285.689 157.055C287.041 157.072 287.403 156.259 287.683 155.164C288.755 150.966 289.875 146.768 290.963 142.57C291.375 140.994 291.952 139.434 291.919 137.311Z" fill="#6D6E71"/>
<path d="M168.313 172.535C167.621 172.535 166.945 172.519 166.253 172.535C164.934 172.585 164.292 171.971 164.044 170.644C163.402 167.176 162.627 163.758 161.951 160.29C161.688 158.897 160.979 158.349 159.545 158.399C158.144 158.449 157.073 158.532 156.661 160.274C155.886 163.642 154.848 166.927 154.008 170.279C153.53 172.17 152.409 172.801 150.547 172.685C145.635 172.336 145.635 172.386 146.904 167.574C150.448 154.168 154.008 140.762 157.518 127.339C157.864 126.045 158.507 125.497 159.825 125.514C163.056 125.547 166.286 125.381 169.5 125.53C178.136 125.929 183.937 135.187 181.02 143.798C179.223 149.091 175.581 152.874 170.966 155.678C169.335 156.673 168.972 157.636 169.401 159.361C170.225 162.779 170.917 166.23 171.659 169.682C172.268 172.552 172.252 172.569 169.335 172.569C168.989 172.569 168.643 172.569 168.313 172.569V172.535ZM166.583 133.146C165.215 133.047 163.979 133.03 163.534 134.789C162.298 139.584 160.996 144.362 159.677 149.141C159.314 150.468 159.743 150.933 161.061 150.8C165.808 150.286 169.747 148.344 172.301 144.13C173.752 141.724 174.872 139.069 173.504 136.315C172.12 133.544 169.269 133.362 166.583 133.146Z" fill="#6D6E71"/>
<path d="M124.721 125.497C127.539 125.497 130.358 125.564 133.159 125.464C134.643 125.414 134.956 125.929 134.626 127.289C132.978 133.943 133.835 133.047 127.704 133.13C125.644 133.163 123.584 133.179 121.524 133.13C120.37 133.113 119.744 133.627 119.447 134.706C118.673 137.576 117.898 140.43 117.074 143.284C116.728 144.495 117.173 144.96 118.36 144.96C120.42 144.96 122.48 145.009 124.54 144.96C126.089 144.91 126.798 145.375 126.089 147.017C125.924 147.399 125.825 147.797 125.71 148.195C124.359 152.625 124.359 152.575 119.645 152.642C113.959 152.708 114.965 151.58 113.3 157.52C112.789 159.312 112.394 161.137 111.8 162.912C111.289 164.455 111.85 164.92 113.317 164.903C116.398 164.87 119.497 164.936 122.579 164.887C124.062 164.853 124.556 165.301 124.128 166.844C122.348 173.216 123.947 172.602 116.975 172.519C112.377 172.469 107.812 173.216 103.197 172.685C101.533 172.502 101.5 171.888 101.879 170.544C105.834 156.806 109.394 142.969 112.97 129.131C113.893 125.58 113.959 125.497 117.503 125.497C119.909 125.497 122.315 125.497 124.705 125.497H124.721Z" fill="#6D6E71"/>
<path d="M436.291 125.514C439.109 125.514 441.91 125.58 444.729 125.497C446.195 125.448 446.476 125.978 446.228 127.356C445.19 133.063 445.141 133.13 439.438 133.146C437.378 133.146 435.318 133.163 433.258 133.113C432.055 133.08 431.346 133.495 431.05 134.739C430.39 137.493 429.632 140.214 428.907 142.952C428.528 144.362 428.973 145.043 430.489 144.993C432.335 144.943 434.197 145.043 436.043 144.976C437.609 144.91 438.235 145.441 437.708 147.034C435.631 153.355 437.658 152.575 430.638 152.609C426.237 152.625 426.254 152.609 425.149 156.806C424.639 158.748 424.111 160.672 423.551 162.597C423.089 164.173 423.501 164.936 425.265 164.903C428.347 164.837 431.445 164.903 434.527 164.87C435.928 164.853 436.323 165.268 435.895 166.728C434.247 172.502 434.28 172.469 428.363 172.535C424.177 172.585 420.008 172.784 415.821 172.817C413.382 172.817 413.102 172.303 413.745 169.914C417.469 155.977 421.227 142.056 424.853 128.102C425.364 126.128 426.204 125.331 428.231 125.448C430.901 125.597 433.588 125.481 436.258 125.481L436.291 125.514Z" fill="#6D6E71"/>
<path d="M393.622 125.514C396.44 125.613 399.604 127.405 401.928 130.74C402.851 132.051 402.966 133.146 401.121 133.744C400.544 133.926 399.934 134.191 399.456 134.557C397.627 135.934 396.012 136.166 394.331 134.191C393.474 133.179 392.155 133.296 390.87 133.627C387.376 134.523 384.969 136.946 382.959 139.65C378.822 145.225 376.366 151.414 377.273 158.582C377.339 159.063 377.421 159.544 377.52 160.009C378.641 164.853 381.986 165.65 385.958 163.277C389.337 161.27 389.238 161.12 391.974 163.858C394.479 166.363 394.462 166.446 391.644 168.67C388.496 171.158 384.92 172.652 380.981 172.37C375.625 171.971 372.576 168.222 370.763 163.592C368.67 158.233 369.247 152.741 370.928 147.332C373.153 140.131 376.548 133.677 382.662 128.998C385.662 126.692 389.09 125.531 393.638 125.547L393.622 125.514Z" fill="#6D6E71"/>
<path d="M205.79 172.867C202.84 172.867 199.89 172.9 196.957 172.867C194.649 172.834 194.353 172.336 194.962 170.063C198.687 156.126 202.445 142.189 206.07 128.235C206.631 126.095 207.488 125.381 209.713 125.464C215.234 125.663 214.789 125.083 213.371 130.359C210.438 141.226 207.587 152.111 204.653 162.979C204.258 164.455 204.587 165.036 206.136 164.936C207.57 164.853 209.021 164.903 210.454 164.936C212.894 164.97 213.009 165.119 212.383 167.392C212.366 167.458 212.35 167.525 212.333 167.591C210.735 173.083 211.872 172.569 205.774 172.9L205.79 172.867Z" fill="#6D6E71"/>
<path d="M236.725 172.569C234.154 172.447 233.198 171.131 233.857 168.62C237.483 154.931 241.125 141.243 244.701 127.555C245.08 126.095 245.707 125.531 247.223 125.497C253.14 125.398 253.14 125.348 251.623 131.105C248.294 143.732 244.949 156.342 241.62 168.968C240.614 172.751 240.598 172.768 236.741 172.569H236.725Z" fill="#6D6E71"/>
<path d="M475.729 162.298C475.729 165.202 475.729 168.105 475.729 171.009C475.729 171.557 475.762 172.22 475.152 172.453C474.509 172.718 474.147 172.104 473.817 171.723C470.323 167.74 466.846 163.725 463.368 159.727C463.022 159.328 462.792 158.598 462.165 158.797C461.523 158.997 461.737 159.743 461.737 160.257C461.72 163.443 461.737 166.612 461.704 169.798C461.704 170.478 461.605 171.175 461.424 171.839C461.292 172.32 460.88 172.652 460.336 172.635C459.776 172.635 459.43 172.253 459.331 171.756C459.199 171.092 459.149 170.395 459.133 169.698C459.116 164.439 459.1 159.196 459.116 153.936C459.116 153.206 458.836 152.26 459.71 151.895C460.666 151.514 461.16 152.376 461.687 152.99C464.984 156.873 468.296 160.739 471.609 164.621C471.905 164.97 472.153 165.55 472.713 165.335C473.257 165.119 473.092 164.505 473.092 164.04C473.109 160.656 473.092 157.271 473.125 153.886C473.125 152.974 472.878 151.746 474.345 151.729C475.91 151.729 475.713 152.974 475.713 153.986C475.729 156.757 475.713 159.511 475.713 162.282L475.729 162.298Z" fill="#1D81E2"/>
<path d="M490.479 172.95C484.25 172.95 480.278 169.781 479.075 164.256C478.003 159.245 480.443 154.351 485.14 152.127C489.474 150.07 495.209 151.065 497.995 154.4C498.506 155.014 499.56 155.711 498.604 156.64C497.78 157.453 496.808 157.072 496 156.408C494.682 155.346 493.479 154.234 491.567 154.085C487.859 153.786 484.068 155.595 482.849 158.598C481.201 162.613 482.157 166.313 485.436 168.703C488.452 170.893 492.622 170.76 495.572 168.371C495.836 168.155 496.083 167.906 496.363 167.707C497.006 167.276 497.698 166.828 498.341 167.674C498.934 168.47 498.786 169.217 498.028 169.847C495.704 171.822 493.182 173.249 490.463 172.934L490.479 172.95Z" fill="#1D81E2"/>
<path d="M452.508 161.9C452.508 159.129 452.508 156.375 452.508 153.604C452.508 152.675 452.524 151.729 453.826 151.713C455.161 151.713 455.112 152.708 455.112 153.604C455.112 159.063 455.112 164.522 455.095 169.98C455.095 170.262 455.079 170.528 455.046 170.81C454.947 171.673 454.766 172.618 453.744 172.635C452.623 172.652 452.574 171.623 452.574 170.81C452.541 167.84 452.574 164.87 452.574 161.9C452.574 161.9 452.541 161.9 452.524 161.9H452.508Z" fill="#1D81E2"/>
<path d="M102.884 113.833C113.382 110.764 123.732 107.213 133.538 102.335C138.235 99.9955 142.636 96.9757 146.245 93.0269C147.926 91.1852 147.564 88.2152 145.388 87.004C143.559 85.9919 141.713 84.9134 139.505 84.9798C139.142 84.9798 138.845 84.8304 138.697 84.2663C142.537 83.9511 146.245 84.3825 149.887 85.4112C151.123 85.7596 152.343 86.1578 153.53 86.6224C157.881 88.3313 158.705 92.1973 155.474 95.5986C152.92 98.2865 150.052 100.576 146.838 102.401C134.247 109.552 120.7 114.248 106.856 118.263C65.1597 129.778 52.6343 129.181 49.5194 130.16C38.8399 131.404 28.1273 131.653 17.3983 131.404C13.0145 131.304 8.71297 130.292 4.70814 128.401C3.85114 128.003 3.07654 127.372 2.38435 126.742C0.901078 125.398 0.620904 123.987 1.64271 122.03C3.91706 117.682 7.98782 115.492 11.7454 112.904C12.7343 112.224 13.8385 111.709 15.3382 110.863C14.7944 112.174 14.0198 112.589 13.41 113.153C12.0421 114.381 10.5753 115.526 9.61942 117.152C8.41632 119.192 8.54816 119.972 10.2786 121.582C12.5365 123.672 15.3877 124.203 18.2389 124.751C24.0566 125.846 29.9567 125.514 35.8074 125.464C39.598 125.431 43.3886 125.414 47.1462 124.751C50.9697 124.319 54.7933 123.904 58.6168 123.473C61.9459 122.942 65.275 122.494 68.5877 121.88C73.6143 120.951 101.764 114.165 102.917 113.833H102.884Z" fill="#1E82E1"/>
</g>
<defs>
<clipPath id="clip0_19017_1309">
<rect width="498" height="111" fill="white" transform="translate(1 62)"/>
</clipPath>
</defs>
</svg>
